# xmcd CD database file
#
# Track frame offsets:
#	150
#	14587
#	30202
#	46860
#	68070
#	83343
#	99422
#	116479
#	135293
#	144010
#	164450
#	173972
#	192187
#
# Disc length: 2714 seconds
#
# Revision: 0
# Processed by: cddbd v1.5.2PL0 Copyright (c) Steve Scherf et al.
# Submitted via: CDex 1.51
#
DISCID=930a980d
DTITLE=Robert Lighthouse - Democracy Blvd.
DYEAR=2008
DGENRE=Blues
TTITLE0=Democracy Blvd.
TTITLE1=Greyhound
TTITLE2=The Machine
TTITLE3=Deep Down In The Mud
TTITLE4=Red Hot Mama
TTITLE5=She's The One I Love
TTITLE6=Starlight Express
TTITLE7=Stuck In The Mud
TTITLE8=African Blues
TTITLE9=Lost and Found
TTITLE10=Sitting By Water
TTITLE11=Me and My Son
TTITLE12=Alright
EXTD=YEAR: 2008
EXTT0=
EXTT1=
EXTT2=
EXTT3=
EXTT4=
EXTT5=
EXTT6=
EXTT7=
EXTT8=
EXTT9=
EXTT10=
EXTT11=
EXTT12=
PLAYORDER=
